<?xml version="1.0" encoding="UTF-8" standalone="no"?>
<svg width="48px" height="48px" viewBox="0 0 48 48" version="1.1" xmlns="http://www.w3.org/2000/svg" xmlns:xlink="http://www.w3.org/1999/xlink" xmlns:sketch="http://www.bohemiancoding.com/sketch/ns">
    <!-- Generator: Sketch 3.4.2 (15855) - http://www.bohemiancoding.com/sketch -->
    <title>google</title>
    <desc>Created with Sketch.</desc>
    <defs></defs>
    <g id="promo2" stroke="none" stroke-width="1" fill="none" fill-rule="evenodd" sketch:type="MSPage">
        <g id="Desktop-HD-Copy-14" sketch:type="MSArtboardGroup" transform="translate(-1362.000000, -30.000000)">
            <g id="social-sharing" sketch:type="MSLayerGroup" transform="translate(1176.000000, 30.000000)">
                <g id="google" transform="translate(186.000000, 0.000000)" sketch:type="MSShapeGroup">
                    <circle id="circle" fill="#F93F2D" cx="24" cy="24" r="24"></circle>
                    <path d="M23.9784367,21.6237624 L23.9784367,26.3762376 C23.9784367,26.3762376 28.5805283,26.3700594 30.4543827,26.3700594 C29.439655,29.4509703 27.8618221,31.1287129 23.9784367,31.1287129 C20.048442,31.1287129 16.9811321,27.9370693 16.9811321,24 C16.9811321,20.0629307 20.048442,16.8712871 23.9784367,16.8712871 C26.0562803,16.8712871 27.398221,17.6029307 28.6291536,18.6226931 C29.614469,17.635604 29.5321617,17.4949307 32.0389757,15.1233267 C29.910965,13.1828911 27.0826307,12 23.9784367,12 C17.3629003,12 12,17.3725545 12,24 C12,30.6273267 17.3629003,36 23.9784367,36 C33.866814,36 36.2837305,27.3742574 35.4824798,21.6237624 L23.9784367,21.6237624 L23.9784367,21.6237624 Z" id="GooglePlus" fill="#FFFFFF"></path>
                </g>
            </g>
        </g>
    </g>
</svg>